<mxfile host="app.diagrams.net" modified="2020-09-21T13:42:37.921Z" agent="5.0 (Windows NT 10.0; Win64; x64) AppleWebKit/537.36 (KHTML, like Gecko) Chrome/85.0.4183.102 Safari/537.36" etag="BAzm2hnsCrs-y0FZbuY0" version="13.7.3" type="github">
  <diagram id="0KY5EVTdoGLi4_GUMJjV" name="Page-1">
    <mxGraphModel dx="942" dy="614" grid="1" gridSize="10" guides="1" tooltips="1" connect="1" arrows="1" fold="1" page="1" pageScale="1" pageWidth="827" pageHeight="1169" math="0" shadow="0">
      <root>
        <mxCell id="0" />
        <mxCell id="1" parent="0" />
        <mxCell id="uO6-Ss8m1tkBBqHpcwp5-6" style="edgeStyle=orthogonalEdgeStyle;rounded=0;orthogonalLoop=1;jettySize=auto;html=1;entryX=0;entryY=0.5;entryDx=0;entryDy=0;" edge="1" parent="1" source="uO6-Ss8m1tkBBqHpcwp5-1" target="uO6-Ss8m1tkBBqHpcwp5-3">
          <mxGeometry relative="1" as="geometry" />
        </mxCell>
        <mxCell id="uO6-Ss8m1tkBBqHpcwp5-1" value="需求PRD评审" style="rounded=0;whiteSpace=wrap;html=1;" vertex="1" parent="1">
          <mxGeometry x="230" y="260" width="120" height="60" as="geometry" />
        </mxCell>
        <mxCell id="uO6-Ss8m1tkBBqHpcwp5-5" style="edgeStyle=orthogonalEdgeStyle;rounded=0;orthogonalLoop=1;jettySize=auto;html=1;entryX=0;entryY=0.5;entryDx=0;entryDy=0;" edge="1" parent="1" source="uO6-Ss8m1tkBBqHpcwp5-2" target="uO6-Ss8m1tkBBqHpcwp5-1">
          <mxGeometry relative="1" as="geometry" />
        </mxCell>
        <mxCell id="uO6-Ss8m1tkBBqHpcwp5-2" value="需求提出" style="rounded=1;whiteSpace=wrap;html=1;" vertex="1" parent="1">
          <mxGeometry x="50" y="260" width="120" height="60" as="geometry" />
        </mxCell>
        <mxCell id="uO6-Ss8m1tkBBqHpcwp5-10" style="edgeStyle=orthogonalEdgeStyle;rounded=0;orthogonalLoop=1;jettySize=auto;html=1;entryX=0;entryY=0.5;entryDx=0;entryDy=0;" edge="1" parent="1" source="uO6-Ss8m1tkBBqHpcwp5-3" target="uO6-Ss8m1tkBBqHpcwp5-7">
          <mxGeometry relative="1" as="geometry" />
        </mxCell>
        <mxCell id="uO6-Ss8m1tkBBqHpcwp5-3" value="交互设计评审" style="rounded=0;whiteSpace=wrap;html=1;" vertex="1" parent="1">
          <mxGeometry x="400" y="260" width="120" height="60" as="geometry" />
        </mxCell>
        <mxCell id="uO6-Ss8m1tkBBqHpcwp5-4" value="&lt;span style=&quot;color: rgba(0 , 0 , 0 , 0.84) ; font-family: &amp;#34;pingfang sc&amp;#34; , &amp;#34;hiragino sans gb&amp;#34; , &amp;#34;microsoft yahei&amp;#34; , &amp;#34;stheiti&amp;#34; , &amp;#34;wenquanyi micro hei&amp;#34; , &amp;#34;helvetica&amp;#34; , &amp;#34;arial&amp;#34; , sans-serif ; background-color: rgb(255 , 255 , 255)&quot;&gt;&lt;font style=&quot;font-size: 12px&quot;&gt;产品需求文档(Product Requirement Document，PRD)&lt;/font&gt;&lt;/span&gt;" style="text;html=1;strokeColor=none;fillColor=none;align=center;verticalAlign=middle;whiteSpace=wrap;rounded=0;" vertex="1" parent="1">
          <mxGeometry x="200" y="180" width="186" height="30" as="geometry" />
        </mxCell>
        <mxCell id="uO6-Ss8m1tkBBqHpcwp5-14" style="edgeStyle=orthogonalEdgeStyle;rounded=0;orthogonalLoop=1;jettySize=auto;html=1;entryX=0.5;entryY=0;entryDx=0;entryDy=0;" edge="1" parent="1" source="uO6-Ss8m1tkBBqHpcwp5-7" target="uO6-Ss8m1tkBBqHpcwp5-12">
          <mxGeometry relative="1" as="geometry" />
        </mxCell>
        <mxCell id="uO6-Ss8m1tkBBqHpcwp5-7" value="概要设计" style="rounded=0;whiteSpace=wrap;html=1;" vertex="1" parent="1">
          <mxGeometry x="600" y="260" width="120" height="60" as="geometry" />
        </mxCell>
        <mxCell id="uO6-Ss8m1tkBBqHpcwp5-8" value="&lt;span style=&quot;color: rgba(0 , 0 , 0 , 0.84) ; font-family: &amp;#34;pingfang sc&amp;#34; , &amp;#34;hiragino sans gb&amp;#34; , &amp;#34;microsoft yahei&amp;#34; , &amp;#34;stheiti&amp;#34; , &amp;#34;wenquanyi micro hei&amp;#34; , &amp;#34;helvetica&amp;#34; , &amp;#34;arial&amp;#34; , sans-serif ; background-color: rgb(255 , 255 , 255)&quot;&gt;&lt;font style=&quot;font-size: 12px&quot;&gt;UI将产品的大部分都画出来&lt;/font&gt;&lt;/span&gt;" style="text;html=1;strokeColor=none;fillColor=none;align=center;verticalAlign=middle;whiteSpace=wrap;rounded=0;" vertex="1" parent="1">
          <mxGeometry x="386" y="330" width="160" height="30" as="geometry" />
        </mxCell>
        <mxCell id="uO6-Ss8m1tkBBqHpcwp5-9" value="&lt;font color=&quot;#a00027&quot; face=&quot;pingfang sc, hiragino sans gb, microsoft yahei, stheiti, wenquanyi micro hei, helvetica, arial, sans-serif&quot;&gt;&lt;span style=&quot;background-color: rgb(255 , 255 , 255)&quot;&gt;AXURE的PR图，word 的文档&lt;/span&gt;&lt;/font&gt;" style="text;html=1;strokeColor=none;fillColor=none;align=center;verticalAlign=middle;whiteSpace=wrap;rounded=0;" vertex="1" parent="1">
          <mxGeometry x="200" y="220" width="186" height="30" as="geometry" />
        </mxCell>
        <mxCell id="uO6-Ss8m1tkBBqHpcwp5-11" value="测试用例评审" style="rounded=0;whiteSpace=wrap;html=1;" vertex="1" parent="1">
          <mxGeometry x="600" y="470" width="120" height="60" as="geometry" />
        </mxCell>
        <mxCell id="uO6-Ss8m1tkBBqHpcwp5-15" style="edgeStyle=orthogonalEdgeStyle;rounded=0;orthogonalLoop=1;jettySize=auto;html=1;" edge="1" parent="1" source="uO6-Ss8m1tkBBqHpcwp5-12" target="uO6-Ss8m1tkBBqHpcwp5-11">
          <mxGeometry relative="1" as="geometry" />
        </mxCell>
        <mxCell id="uO6-Ss8m1tkBBqHpcwp5-12" value="详细设计" style="rounded=0;whiteSpace=wrap;html=1;" vertex="1" parent="1">
          <mxGeometry x="600" y="370" width="120" height="60" as="geometry" />
        </mxCell>
        <mxCell id="uO6-Ss8m1tkBBqHpcwp5-13" value="依据任务的大小，技术选型，接口，字段等设计" style="text;html=1;strokeColor=none;fillColor=none;align=center;verticalAlign=middle;whiteSpace=wrap;rounded=0;" vertex="1" parent="1">
          <mxGeometry x="770" y="300" width="143" height="80" as="geometry" />
        </mxCell>
        <mxCell id="uO6-Ss8m1tkBBqHpcwp5-16" value="接口定义&amp;amp;开发&amp;amp;前后端联调" style="rounded=0;whiteSpace=wrap;html=1;" vertex="1" parent="1">
          <mxGeometry x="400" y="470" width="120" height="60" as="geometry" />
        </mxCell>
      </root>
    </mxGraphModel>
  </diagram>
</mxfile>
